<svg xmlns="http://www.w3.org/2000/svg" viewBox="0 0 64 64" role="img" aria-labelledby="title desc">
  <title id="title">Craft Code Mizu favicon</title>
  <desc id="desc">Compact C-shaped water and code icon.</desc>
  <rect width="64" height="64" rx="14" fill="#FFFFFF"/>
  <path d="M14 35C10 21 19 10 33 10c7 0 13 2 18 7" fill="none" stroke="#38BDF8" stroke-width="5" stroke-linecap="round"/>
  <g fill="#1E4E8C">
    <circle cx="40" cy="23" r="2.4"/>
    <circle cx="40" cy="30" r="2.4"/>
    <circle cx="40" cy="37" r="2.4"/>
  </g>
  <g fill="#38BDF8">
    <rect x="46" y="21" width="11" height="4" rx="2"/>
    <rect x="46" y="28" width="8" height="4" rx="2"/>
  </g>
  <path d="M10 43c8-5 15-5 23-1 9 4 17 6 29-1-5 8-17 12-29 7-10-4-16-6-23-5Z" fill="#38BDF8"/>
  <path d="M11 49c8-3 15-3 23 1 9 4 17 4 27-2-6 8-17 10-27 6-8-4-15-5-23-5Z" fill="#1E4E8C"/>
</svg>
