<svg xmlns="http://www.w3.org/2000/svg" viewBox="0 0 940 220" role="img" aria-labelledby="title desc">
  <title id="title">Craft Code Mizu horizontal logo</title>
  <desc id="desc">Craft Code Mizu symbol with a rounded wordmark.</desc>
  <defs>
    <linearGradient id="sky" x1="24" y1="18" x2="180" y2="190" gradientUnits="userSpaceOnUse">
      <stop offset="0" stop-color="#38BDF8"/>
      <stop offset="1" stop-color="#0EA5E9"/>
    </linearGradient>
  </defs>
  <g transform="translate(10 8) scale(.78)">
    <g fill="none" stroke-linecap="round" stroke-linejoin="round">
      <path d="M49 139C37 86 72 42 124 42c25 0 47 9 64 25" stroke="url(#sky)" stroke-width="17"/>
    </g>
    <g fill="#1E4E8C">
      <circle cx="154" cy="91" r="8"/>
      <circle cx="154" cy="116" r="8"/>
      <circle cx="154" cy="141" r="8"/>
    </g>
    <g fill="#38BDF8">
      <rect x="173" y="84" width="40" height="13" rx="6.5"/>
      <rect x="173" y="109" width="28" height="13" rx="6.5"/>
    </g>
    <path d="M35 168c29-18 55-19 82-7 31 14 59 23 104-1-17 27-58 42-99 25-34-14-57-20-87-17Z" fill="#38BDF8"/>
    <path d="M38 188c27-12 52-11 80 2 31 14 61 17 99-4-20 28-61 38-99 22-29-13-52-18-80-20Z" fill="#0EA5E9"/>
    <path d="M47 207c25-5 46 1 69 14 24 13 52 15 83 1-23 23-59 29-91 14-22-10-41-20-61-29Z" fill="#1E4E8C"/>
  </g>
  <text x="210" y="133" fill="#173E70" font-family="Nunito Sans, Avenir Next, Helvetica Neue, Arial, sans-serif" font-size="82" font-weight="600" letter-spacing="-1.5">Craft Code</text>
  <text x="650" y="133" fill="#38BDF8" font-family="Nunito Sans, Avenir Next, Helvetica Neue, Arial, sans-serif" font-size="82" font-weight="650" letter-spacing="-1.5">Mizu</text>
</svg>
