<svg xmlns="http://www.w3.org/2000/svg" viewBox="0 0 256 256" role="img" aria-labelledby="title desc">
<title id="title">Craft Code Mizu symbol</title><desc id="desc">An abstract C, code nodes, and flowing water lines.</desc>
<g fill="none" stroke-linecap="round" stroke-linejoin="round">
  <path d="M183 55A82 82 0 0 0 57 154" stroke="#0EA5E9" stroke-width="18"/>
  <path d="M40 165c35-24 69-20 101 0 29 18 54 20 78 7-17 28-48 42-82 32-31-9-57-26-97-9" stroke="#38BDF8" stroke-width="13"/>
  <path d="M47 191c29-12 56-7 84 8 29 16 52 19 76 8-20 25-52 34-82 22-28-11-48-24-78-20" stroke="#163B65" stroke-width="11"/>
</g>
<g fill="#163B65"><circle cx="151" cy="104" r="8"/><circle cx="151" cy="128" r="8"/><circle cx="151" cy="152" r="8"/></g>
<g fill="#38BDF8"><rect x="170" y="98" width="34" height="12" rx="6"/><rect x="170" y="122" width="25" height="12" rx="6"/></g>
</svg>